<svg width="825" height="825" viewBox="0 0 825 825" fill="none" xmlns="http://www.w3.org/2000/svg">
<path d="M732.407 107.521H616.05C604.058 107.521 594.328 97.8759 594.328 85.9871C594.328 74.0984 604.058 64.4531 616.05 64.4531H732.407C744.4 64.4531 754.129 74.0984 754.129 85.9871C754.129 97.8759 744.4 107.521 732.407 107.521Z" fill="#E3EB8B"/>
<path d="M208.917 107.521H161.459C149.466 107.521 139.737 97.8759 139.737 85.9871C139.737 74.0984 149.45 64.4531 161.459 64.4531H208.917C220.909 64.4531 230.639 74.0984 230.639 85.9871C230.639 97.8759 220.909 107.521 208.917 107.521Z" fill="#81F1A4"/>
<path d="M103.792 107.521H34.6126C22.6201 107.521 12.8906 97.8759 12.8906 85.9871C12.8906 74.0984 22.6201 64.4531 34.6126 64.4531H103.792C115.785 64.4531 125.514 74.0984 125.514 85.9871C125.514 97.8759 115.785 107.521 103.792 107.521Z" fill="#8BE3EB"/>
<path d="M790.387 107.521H789.76C777.767 107.521 768.038 97.8759 768.038 85.9871C768.038 74.0984 777.767 64.4531 789.76 64.4531H790.387C802.38 64.4531 812.109 74.0984 812.109 85.9871C812.109 97.8759 802.38 107.521 790.387 107.521Z" fill="#F19A81"/>
<path d="M762.19 174.105H656.108C644.115 174.105 634.386 164.459 634.386 152.571C634.386 140.682 644.115 131.037 656.108 131.037H762.19C774.183 131.037 783.912 140.682 783.912 152.571C783.912 164.459 774.183 174.105 762.19 174.105Z" fill="#F18196"/>
<path d="M598.442 174.105H589.175C577.182 174.105 567.453 164.459 567.453 152.571C567.453 140.682 577.182 131.037 589.175 131.037H598.442C610.434 131.037 620.163 140.682 620.163 152.571C620.163 164.459 610.434 174.105 598.442 174.105Z" fill="#F181C5"/>
<path d="M236.189 174.105H201.483C189.491 174.105 179.761 164.459 179.761 152.571C179.761 140.682 189.491 131.037 201.483 131.037H236.189C248.181 131.037 257.911 140.682 257.911 152.571C257.911 164.459 248.181 174.105 236.189 174.105Z" fill="#AB8BEB"/>
<path d="M143.817 174.105H62.562C50.5695 174.105 40.8401 164.459 40.8401 152.571C40.8401 140.682 50.5695 131.037 62.562 131.037H143.817C155.809 131.037 165.539 140.682 165.539 152.571C165.539 164.459 155.809 174.105 143.817 174.105Z" fill="#F181C5"/>
<path d="M174.938 240.704H85.2256C73.2331 240.704 63.5037 231.059 63.5037 219.17C63.5037 207.282 73.2331 197.636 85.2256 197.636H174.938C186.931 197.636 196.66 207.282 196.66 219.17C196.66 231.059 186.931 240.704 174.938 240.704Z" fill="#F18196"/>
<path d="M728.525 240.704H697.404C696.479 240.704 695.554 240.639 694.662 240.541C693.754 240.655 692.845 240.704 691.92 240.704H686.419C674.427 240.704 664.698 231.059 664.698 219.17C664.698 207.282 674.427 197.636 686.419 197.636H691.92C692.845 197.636 693.77 197.702 694.662 197.8C695.571 197.685 696.479 197.636 697.404 197.636H728.525C740.518 197.636 750.247 207.282 750.247 219.17C750.247 231.059 740.518 240.704 728.525 240.704Z" fill="#81F1A4"/>
<path d="M628.406 240.704H575.629C574.704 240.704 573.779 240.639 572.887 240.541C571.995 240.655 571.07 240.704 570.145 240.704H564.644C552.652 240.704 542.922 231.059 542.922 219.17C542.922 207.282 552.652 197.636 564.644 197.636H570.145C571.07 197.636 571.995 197.702 572.887 197.8C573.796 197.685 574.704 197.636 575.629 197.636H628.406C640.399 197.636 650.128 207.282 650.128 219.17C650.128 231.059 640.399 240.704 628.406 240.704Z" fill="#E3EB8B"/>
<path d="M262.42 240.704H243.606C242.681 240.704 241.756 240.639 240.864 240.541C239.955 240.655 239.047 240.704 238.122 240.704H232.621C220.628 240.704 210.899 231.059 210.899 219.17C210.899 207.282 220.628 197.636 232.621 197.636H238.122C239.047 197.636 239.972 197.702 240.864 197.8C241.772 197.685 242.681 197.636 243.606 197.636H262.42C274.413 197.636 284.142 207.282 284.142 219.17C284.142 231.059 274.413 240.704 262.42 240.704Z" fill="#F19A81"/>
<path d="M287.991 307.288H204.87C192.877 307.288 183.148 297.643 183.148 285.754C183.148 273.865 192.877 264.22 204.87 264.22H287.991C299.984 264.22 309.713 273.865 309.713 285.754C309.713 297.643 299.984 307.288 287.991 307.288Z" fill="#81F1A4"/>
<path d="M147.203 307.288H119.898C107.905 307.288 98.176 297.643 98.176 285.754C98.176 273.865 107.905 264.22 119.898 264.22H147.203C159.196 264.22 168.925 273.865 168.925 285.754C168.925 297.643 159.196 307.288 147.203 307.288Z" fill="#E3EB8B"/>
<path d="M705.845 307.288H535.489C523.497 307.288 513.767 297.643 513.767 285.754C513.767 273.865 523.497 264.22 535.489 264.22H705.845C717.838 264.22 727.567 273.865 727.567 285.754C727.567 297.643 717.838 307.288 705.845 307.288Z" fill="#8BE3EB"/>
<path d="M676.079 373.888H567.155C555.163 373.888 545.433 364.242 545.433 352.354C545.433 340.465 555.163 330.82 567.155 330.82H676.079C688.071 330.82 697.801 340.465 697.801 352.354C697.801 364.242 688.071 373.888 676.079 373.888Z" fill="#AB8BEB"/>
<path d="M509.092 373.888H508.894C496.902 373.888 487.172 364.242 487.172 352.354C487.172 340.465 496.902 330.82 508.894 330.82H509.092C521.085 330.82 530.814 340.465 530.814 352.354C530.814 364.242 521.085 373.888 509.092 373.888Z" fill="#F181C5"/>
<path d="M315.362 373.888H147.253C135.26 373.888 125.531 364.242 125.531 352.354C125.531 340.465 135.26 330.82 147.253 330.82H315.362C327.355 330.82 337.084 340.465 337.084 352.354C337.084 364.242 327.355 373.888 315.362 373.888Z" fill="#F19A81"/>
<path d="M261.198 440.471H174.789C162.797 440.471 153.067 430.826 153.067 418.937C153.067 407.048 162.797 397.403 174.789 397.403H261.198C273.191 397.403 282.92 407.048 282.92 418.937C282.92 430.826 273.191 440.471 261.198 440.471Z" fill="#F19A81"/>
<path d="M648.658 440.471H481.986C469.993 440.471 460.264 430.826 460.264 418.937C460.264 407.048 469.993 397.403 481.986 397.403H648.658C660.651 397.403 670.38 407.048 670.38 418.937C670.38 430.826 660.651 440.471 648.658 440.471Z" fill="#F181C5"/>
<path d="M343.196 440.471H318.897C306.905 440.471 297.176 430.826 297.176 418.937C297.176 407.048 306.905 397.403 318.897 397.403H343.196C355.189 397.403 364.918 407.048 364.918 418.937C364.918 430.826 355.189 440.471 343.196 440.471Z" fill="#F18196"/>
<path d="M620.444 507.071H616.1C604.107 507.071 594.378 497.426 594.378 485.537C594.378 473.648 604.107 464.003 616.1 464.003H620.444C632.437 464.003 642.166 473.648 642.166 485.537C642.166 497.426 632.437 507.071 620.444 507.071Z" fill="#E3EB8B"/>
<path d="M558.45 507.071H548.192C536.199 507.071 526.47 497.426 526.47 485.537C526.47 473.648 536.199 464.003 548.192 464.003H558.45C570.442 464.003 580.172 473.648 580.172 485.537C580.172 497.426 570.442 507.071 558.45 507.071Z" fill="#81F1A4"/>
<path d="M490.526 507.071H455.473C443.481 507.071 433.751 497.426 433.751 485.537C433.751 473.648 443.481 464.003 455.473 464.003H490.526C502.518 464.003 512.247 473.648 512.247 485.537C512.247 497.426 502.518 507.071 490.526 507.071Z" fill="#8BE3EB"/>
<path d="M368.651 507.071H314.355C302.362 507.071 292.633 497.426 292.633 485.537C292.633 473.648 302.362 464.003 314.355 464.003H368.651C380.644 464.003 390.373 473.648 390.373 485.537C390.373 497.426 380.644 507.071 368.651 507.071Z" fill="#81F1A4"/>
<path d="M256.705 507.071H203.036C191.044 507.071 181.314 497.426 181.314 485.537C181.314 473.648 191.044 464.003 203.036 464.003H256.705C268.698 464.003 278.427 473.648 278.427 485.537C278.427 497.426 268.698 507.071 256.705 507.071Z" fill="#E3EB8B"/>
<path d="M591.338 573.654H375.16C363.167 573.654 353.438 564.009 353.438 552.12C353.438 540.232 363.167 530.586 375.16 530.586H591.338C603.331 530.586 613.06 540.232 613.06 552.12C613.06 564.009 603.331 573.654 591.338 573.654Z" fill="#F19A81"/>
<path d="M317.493 573.654H232.522C220.529 573.654 210.8 564.009 210.8 552.12C210.8 540.232 220.529 530.586 232.522 530.586H317.493C329.486 530.586 339.215 540.232 339.215 552.12C339.215 564.009 329.486 573.654 317.493 573.654Z" fill="#F18196"/>
<path d="M564.364 640.254H522.572C521.647 640.254 520.722 640.189 519.83 640.09C518.938 640.205 518.013 640.254 517.088 640.254H511.587C499.594 640.254 489.865 630.609 489.865 618.72C489.865 606.832 499.594 597.186 511.587 597.186H517.088C518.013 597.186 518.938 597.252 519.83 597.35C520.738 597.235 521.647 597.186 522.572 597.186H564.364C576.356 597.186 586.086 606.832 586.086 618.72C586.086 630.609 576.356 640.254 564.364 640.254Z" fill="#AB8BEB"/>
<path d="M454.201 640.254H272.15C271.225 640.254 270.3 640.189 269.408 640.09C268.499 640.205 267.591 640.254 266.666 640.254H261.165C249.173 640.254 239.443 630.609 239.443 618.72C239.443 606.832 249.173 597.186 261.165 597.186H266.666C267.591 597.186 268.516 597.252 269.408 597.35C270.316 597.235 271.225 597.186 272.15 597.186H454.201C466.194 597.186 475.923 606.832 475.923 618.72C475.923 630.609 466.194 640.254 454.201 640.254Z" fill="#F181C5"/>
<path d="M470.043 706.838H419.231C407.239 706.838 397.509 697.192 397.509 685.304C397.509 673.415 407.239 663.77 419.231 663.77H470.043C482.035 663.77 491.764 673.415 491.764 685.304C491.764 697.192 482.035 706.838 470.043 706.838Z" fill="#F18196"/>
<path d="M362.176 706.838H288.982C276.99 706.838 267.26 697.192 267.26 685.304C267.26 673.415 276.99 663.77 288.982 663.77H362.176C374.169 663.77 383.898 673.415 383.898 685.304C383.898 697.192 374.169 706.838 362.176 706.838Z" fill="#F19A81"/>
<path d="M535.754 706.838H527.114C515.122 706.838 505.392 697.192 505.392 685.304C505.392 673.415 515.122 663.77 527.114 663.77H535.754C547.746 663.77 557.475 673.415 557.475 685.304C557.475 697.192 547.746 706.838 535.754 706.838Z" fill="#F181C5"/>
<path d="M506.664 773.437H316.833C304.84 773.437 295.111 763.792 295.111 751.903C295.111 740.015 304.84 730.37 316.833 730.37H506.664C518.657 730.37 528.386 740.015 528.386 751.903C528.386 763.792 518.657 773.437 506.664 773.437Z" fill="#E3EB8B"/>
</svg>
